<?xml version="1.0" standalone="no"?><svg xmlns:xlink="http://www.w3.org/1999/xlink" xmlns="http://www.w3.org/2000/svg" viewBox="0 0 1000 583.3418917531068" preserveAspectRatio="xMaxYMax slice"><g transform="scale(1.3693471637396872)"><rect x="0" y="0" width="730.2857142857142" height="426" fill="#ffffff"/><circle cx="30.425" cy="30.425" r="6.085" fill="#ffffff"/><circle cx="91.285" cy="30.425" r="6.085" fill="#e5ecd8"/><circle cx="152.145" cy="30.425" r="6.085" fill="#ffffff"/><circle cx="212.995" cy="30.425" r="6.085" fill="#ffffff"/><circle cx="273.85499999999996" cy="30.425" r="6.085" fill="#ffffff"/><circle cx="334.715" cy="30.425" r="6.085" fill="#d0dcb9"/><circle cx="395.575" cy="30.425" r="6.085" fill="#ffffff"/><circle cx="456.42499999999995" cy="30.425" r="6.085" fill="#f1f5ea"/><circle cx="517.285" cy="30.425" r="6.085" fill="#9fb870"/><circle cx="578.145" cy="30.425" r="6.085" fill="#8aa951"/><circle cx="638.995" cy="30.425" r="6.085" fill="#ffffff"/><circle cx="699.855" cy="30.425" r="6.085" fill="#ffffff"/><circle cx="30.425" cy="91.285" r="6.085" fill="#ecf1e2"/><circle cx="91.285" cy="91.285" r="6.085" fill="#ffffff"/><circle cx="152.145" cy="91.285" r="6.085" fill="#6c9224"/><circle cx="212.995" cy="91.285" r="6.085" fill="#ffffff"/><circle cx="273.85499999999996" cy="91.285" r="6.085" fill="#83a346"/><circle cx="334.715" cy="91.285" r="6.085" fill="#ffffff"/><circle cx="395.575" cy="91.285" r="6.085" fill="#b1c58b"/><circle cx="456.42499999999995" cy="91.285" r="6.085" fill="#dae3c7"/><circle cx="517.285" cy="91.285" r="6.085" fill="#c4d3a6"/><circle cx="578.145" cy="91.285" r="6.085" fill="#f4f7ef"/><circle cx="638.995" cy="91.285" r="6.085" fill="#ffffff"/><circle cx="699.855" cy="91.285" r="6.085" fill="#ffffff"/><circle cx="30.425" cy="152.145" r="6.085" fill="#ffffff"/><circle cx="91.285" cy="152.145" r="6.085" fill="#668e1b"/><circle cx="152.145" cy="152.145" r="6.085" fill="#ffffff"/><circle cx="212.995" cy="152.145" r="6.085" fill="#f0f4e9"/><circle cx="273.85499999999996" cy="152.145" r="6.085" fill="#81a243"/><circle cx="334.715" cy="152.145" r="6.085" fill="#ffffff"/><circle cx="395.575" cy="152.145" r="6.085" fill="#97b264"/><circle cx="456.42499999999995" cy="152.145" r="6.085" fill="#aec387"/><circle cx="517.285" cy="152.145" r="6.085" fill="#d7e2c4"/><circle cx="578.145" cy="152.145" r="6.085" fill="#f0f4e8"/><circle cx="638.995" cy="152.145" r="6.085" fill="#ffffff"/><circle cx="699.855" cy="152.145" r="6.085" fill="#ffffff"/><circle cx="30.425" cy="212.995" r="6.085" fill="#bfd0a0"/><circle cx="91.285" cy="212.995" r="6.085" fill="#8dab56"/><circle cx="152.145" cy="212.995" r="6.085" fill="#cddab4"/><circle cx="212.995" cy="212.995" r="6.085" fill="#c4d3a7"/><circle cx="273.85499999999996" cy="212.995" r="6.085" fill="#ffffff"/><circle cx="334.715" cy="212.995" r="6.085" fill="#648c18"/><circle cx="395.575" cy="212.995" r="6.085" fill="#ffffff"/><circle cx="456.42499999999995" cy="212.995" r="6.085" fill="#ffffff"/><circle cx="517.285" cy="212.995" r="6.085" fill="#ccd9b3"/><circle cx="578.145" cy="212.995" r="6.085" fill="#b1c58a"/><circle cx="638.995" cy="212.995" r="6.085" fill="#ffffff"/><circle cx="699.855" cy="212.995" r="6.085" fill="#eaefdf"/><circle cx="30.425" cy="273.85499999999996" r="6.085" fill="#678e1c"/><circle cx="91.285" cy="273.85499999999996" r="6.085" fill="#6f9428"/><circle cx="152.145" cy="273.85499999999996" r="6.085" fill="#ffffff"/><circle cx="212.995" cy="273.85499999999996" r="6.085" fill="#acc183"/><circle cx="273.85499999999996" cy="273.85499999999996" r="6.085" fill="#eff3e7"/><circle cx="334.715" cy="273.85499999999996" r="6.085" fill="#ccd9b3"/><circle cx="395.575" cy="273.85499999999996" r="6.085" fill="#638c17"/><circle cx="456.42499999999995" cy="273.85499999999996" r="6.085" fill="#bacc98"/><circle cx="517.285" cy="273.85499999999996" r="6.085" fill="#ffffff"/><circle cx="578.145" cy="273.85499999999996" r="6.085" fill="#ffffff"/><circle cx="638.995" cy="273.85499999999996" r="6.085" fill="#d8e2c5"/><circle cx="699.855" cy="273.85499999999996" r="6.085" fill="#9fb870"/><circle cx="30.425" cy="334.715" r="6.085" fill="#ffffff"/><circle cx="91.285" cy="334.715" r="6.085" fill="#98b366"/><circle cx="152.145" cy="334.715" r="6.085" fill="#8ba953"/><circle cx="212.995" cy="334.715" r="6.085" fill="#8daa54"/><circle cx="273.85499999999996" cy="334.715" r="6.085" fill="#ffffff"/><circle cx="334.715" cy="334.715" r="6.085" fill="#9bb56a"/><circle cx="395.575" cy="334.715" r="6.085" fill="#a5bd79"/><circle cx="456.42499999999995" cy="334.715" r="6.085" fill="#cfdbb7"/><circle cx="517.285" cy="334.715" r="6.085" fill="#5f8910"/><circle cx="578.145" cy="334.715" r="6.085" fill="#ffffff"/><circle cx="638.995" cy="334.715" r="6.085" fill="#69901f"/><circle cx="699.855" cy="334.715" r="6.085" fill="#ffffff"/><circle cx="30.425" cy="395.575" r="6.085" fill="#ffffff"/><circle cx="91.285" cy="395.575" r="6.085" fill="#ffffff"/><circle cx="152.145" cy="395.575" r="6.085" fill="#ffffff"/><circle cx="212.995" cy="395.575" r="6.085" fill="#ffffff"/><circle cx="273.85499999999996" cy="395.575" r="6.085" fill="#ffffff"/><circle cx="334.715" cy="395.575" r="6.085" fill="#ffffff"/><circle cx="395.575" cy="395.575" r="6.085" fill="#ffffff"/><circle cx="456.42499999999995" cy="395.575" r="6.085" fill="#ffffff"/><circle cx="517.285" cy="395.575" r="6.085" fill="#bdce9d"/><circle cx="578.145" cy="395.575" r="6.085" fill="#ffffff"/><circle cx="638.995" cy="395.575" r="6.085" fill="#9fb86f"/><circle cx="699.855" cy="395.575" r="6.085" fill="#ffffff"/></g></svg>